<svg width="13" height="22" viewBox="0 0 13 22" fill="none" xmlns="http://www.w3.org/2000/svg">
<path d="M9.34766 5.24207C9.34766 5.34363 9.32031 5.48816 9.26562 5.67566C9.21875 5.85535 9.15234 6.04285 9.06641 6.23816C8.98828 6.42566 8.89844 6.59753 8.79688 6.75378C8.70312 6.91003 8.60547 7.00769 8.50391 7.04675C7.35547 7.49988 6.32812 7.98035 5.42188 8.48816C4.51562 8.99597 3.74609 9.54285 3.11328 10.1288C2.48047 10.7069 1.99609 11.328 1.66016 11.9921C1.32422 12.6483 1.15625 13.3553 1.15625 14.1132C1.15625 14.9335 1.33203 15.6405 1.68359 16.2343C2.03516 16.828 2.53516 17.3241 3.18359 17.7225C3.83203 18.121 4.61719 18.4257 5.53906 18.6366C6.46875 18.8475 7.50391 18.9843 8.64453 19.0468C9.13672 19.078 9.59766 19.0897 10.0273 19.0819C10.4648 19.0741 10.8633 19.0585 11.2227 19.035C11.582 19.0194 11.8945 18.996 12.1602 18.9647C12.4258 18.9413 12.6367 18.9218 12.793 18.9061C12.918 18.9061 12.9805 19.0155 12.9805 19.2343C12.9805 19.4061 12.9648 19.5311 12.9336 19.6093C12.9023 19.6874 12.8477 19.7382 12.7695 19.7616C12.4023 19.9257 12.0039 20.0819 11.5742 20.2303C11.1523 20.3866 10.7227 20.5233 10.2852 20.6405C9.85547 20.7655 9.42969 20.8632 9.00781 20.9335C8.59375 21.0116 8.21094 21.0507 7.85938 21.0507C6.32031 21.0507 5.04688 20.8905 4.03906 20.5702C3.03125 20.2577 2.22656 19.8202 1.625 19.2577C1.03125 18.703 0.613281 18.0468 0.371094 17.2889C0.136719 16.5389 0.0195312 15.7225 0.0195312 14.8397C0.0195312 14.0038 0.113281 13.246 0.300781 12.5663C0.496094 11.8866 0.738281 11.2772 1.02734 10.7382C1.32422 10.1991 1.64844 9.73035 2 9.33191C2.35938 8.92566 2.70312 8.578 3.03125 8.28894C2.71094 8.1405 2.39062 7.953 2.07031 7.72644C1.75 7.49988 1.46094 7.24988 1.20312 6.97644C0.945312 6.69519 0.734375 6.40222 0.570312 6.09753C0.414062 5.78503 0.335938 5.47253 0.335938 5.16003C0.335938 4.83972 0.382812 4.50378 0.476562 4.15222C0.570312 3.80066 0.699219 3.46082 0.863281 3.13269C1.03516 2.79675 1.23828 2.48035 1.47266 2.18347C1.70703 1.87878 1.96484 1.61316 2.24609 1.3866C2.52734 1.16003 2.82812 0.980347 3.14844 0.847534C3.46875 0.714722 3.80078 0.648315 4.14453 0.648315C4.51953 0.648315 4.85156 0.683472 5.14062 0.753784C5.4375 0.816284 5.70312 0.902222 5.9375 1.0116C6.17188 1.11316 6.37891 1.23035 6.55859 1.36316C6.73828 1.49597 6.90625 1.62488 7.0625 1.74988C7.19531 1.85144 7.28516 1.95691 7.33203 2.06628C7.37891 2.16785 7.40234 2.33191 7.40234 2.55847C7.40234 2.83191 7.32422 2.96863 7.16797 2.96863C7.10547 2.96863 7.00781 2.92957 6.875 2.85144C6.75 2.77332 6.59375 2.69128 6.40625 2.60535C6.22656 2.5116 6.02344 2.42566 5.79688 2.34753C5.57812 2.26941 5.34375 2.23035 5.09375 2.23035C4.82812 2.23035 4.53125 2.27332 4.20312 2.35925C3.875 2.44519 3.54688 2.57019 3.21875 2.73425C2.89844 2.8905 2.59375 3.08191 2.30469 3.30847C2.02344 3.53503 1.79688 3.79285 1.625 4.08191C1.625 4.2616 1.67969 4.4491 1.78906 4.64441C1.90625 4.83191 2.05859 5.01941 2.24609 5.20691C2.43359 5.39441 2.64453 5.5741 2.87891 5.74597C3.11328 5.91003 3.34766 6.05847 3.58203 6.19128C3.82422 6.31628 4.05469 6.41785 4.27344 6.49597C4.49219 6.56628 4.67969 6.60144 4.83594 6.60144C4.92969 6.60144 5.03906 6.58582 5.16406 6.55457C5.29688 6.5155 5.44141 6.46863 5.59766 6.41394C5.75391 6.35144 5.91797 6.28503 6.08984 6.21472C6.26172 6.1366 6.42969 6.05847 6.59375 5.98035L8.92578 5.00769C9.08203 4.93738 9.19141 4.92566 9.25391 4.97253C9.31641 5.01941 9.34766 5.10925 9.34766 5.24207Z" fill="#374151"/>
</svg>
